<svg width="20" height="20" viewBox="0 0 20 20" fill="none" xmlns="http://www.w3.org/2000/svg">
<path d="M10.7203 0.0266115C9.28973 -0.0775233 7.85354 0.127578 6.50934 0.627972C5.16513 1.12837 3.94442 1.91232 2.9302 2.92654C1.91598 3.94076 1.13203 5.16147 0.631634 6.50568C0.13124 7.84988 -0.0738612 9.28607 0.0302736 10.7166C0.390274 16.0066 5.01027 19.9966 10.3103 19.9966H14.0003C14.5503 19.9966 15.0003 19.5466 15.0003 18.9966C15.0003 18.4466 14.5503 17.9966 14.0003 17.9966H10.3303C6.60027 17.9966 3.18027 15.5766 2.25027 11.9666C0.760274 6.16661 6.16027 0.756612 11.9603 2.25661C15.5803 3.17661 18.0003 6.59661 18.0003 10.3266V11.4266C18.0003 12.2166 17.2903 12.9966 16.5003 12.9966C15.7103 12.9966 15.0003 12.2166 15.0003 11.4266V10.1766C15.0003 7.66661 13.2203 5.40661 10.7403 5.05661C9.95123 4.93928 9.14558 5.01215 8.39039 5.26913C7.63519 5.52611 6.95232 5.95978 6.39861 6.53403C5.84491 7.10828 5.43639 7.8065 5.20708 8.57054C4.97777 9.33459 4.93429 10.1424 5.08027 10.9266C5.25566 11.8716 5.6999 12.7459 6.35972 13.4448C7.01953 14.1436 7.86692 14.6373 8.80027 14.8666C10.6403 15.2966 12.3903 14.7066 13.5403 13.5366C14.4303 14.7566 16.2103 15.3966 17.8403 14.7466C19.1803 14.2166 20.0003 12.8466 20.0003 11.4066V10.3166C20.0003 5.00661 16.0103 0.386612 10.7203 0.0266115V0.0266115ZM10.0003 12.9966C8.34027 12.9966 7.00027 11.6566 7.00027 9.99661C7.00027 8.33661 8.34027 6.99661 10.0003 6.99661C11.6603 6.99661 13.0003 8.33661 13.0003 9.99661C13.0003 11.6566 11.6603 12.9966 10.0003 12.9966Z" fill="#FE4600"/>
</svg>
