<svg width="20" height="20" viewBox="0 0 20 20" fill="none" xmlns="http://www.w3.org/2000/svg">
<path d="M14.1776 9.28529L3.019 1.09151C2.81415 0.941097 2.57118 0.85003 2.31718 0.828465C2.06318 0.806899 1.80813 0.855681 1.58046 0.969374C1.35278 1.08307 1.16143 1.2572 1.02773 1.47237C0.894034 1.68754 0.823241 1.93529 0.823244 2.188V18.5754C0.822797 18.8283 0.893318 19.0764 1.02692 19.2918C1.16053 19.5072 1.35195 19.6816 1.57979 19.7954C1.80763 19.9091 2.0629 19.9579 2.31706 19.9361C2.57123 19.9143 2.81426 19.8228 3.019 19.6719L14.1776 11.4782C14.3504 11.3513 14.4908 11.186 14.5876 10.9956C14.6843 10.8052 14.7347 10.595 14.7347 10.3818C14.7347 10.1686 14.6843 9.95835 14.5876 9.76794C14.4908 9.57753 14.3504 9.41225 14.1776 9.28534V9.28529ZM2.65854 17.6723V3.09091L12.5874 10.3817L2.65854 17.6723ZM17.3409 0.837774H19.1762V19.9408H17.3409V0.837774Z" fill="#FE4600"/>
</svg>
