<svg width="26" height="26" viewBox="0 0 26 26" fill="none" xmlns="http://www.w3.org/2000/svg">
<path d="M18.3228 22.3024L17.601 16.1536C17.4987 15.2827 17.1008 14.4815 16.4823 13.9007C15.8637 13.32 15.0671 12.9997 14.2421 13H11.7562C10.9316 13.0002 10.1355 13.3208 9.51741 13.9015C8.89933 14.4822 8.50182 15.2831 8.39957 16.1536L7.67659 22.3024C7.63691 22.6402 7.66524 22.9831 7.75969 23.3084C7.85414 23.6337 8.01256 23.9339 8.22442 24.189C8.43628 24.4441 8.69673 24.6484 8.98848 24.7882C9.28024 24.9281 9.59661 25.0002 9.9166 25H16.084C16.4038 25.0001 16.7201 24.9278 17.0117 24.7879C17.3033 24.648 17.5636 24.4437 17.7754 24.1886C17.9871 23.9334 18.1454 23.6333 18.2398 23.3081C18.3342 22.9829 18.3625 22.6401 18.3228 22.3024V22.3024Z" stroke="#FE4600" stroke-width="1.5" stroke-linecap="round" stroke-linejoin="round"/>
<path d="M13.0009 8.2C14.8697 8.2 16.3846 6.58822 16.3846 4.6C16.3846 2.61177 14.8697 1 13.0009 1C11.1321 1 9.61719 2.61177 9.61719 4.6C9.61719 6.58822 11.1321 8.2 13.0009 8.2Z" stroke="#FE4600" stroke-width="1.5"/>
<path d="M3.97846 11.8C5.2243 11.8 6.23425 10.7255 6.23425 9.4C6.23425 8.07452 5.2243 7 3.97846 7C2.73261 7 1.72266 8.07452 1.72266 9.4C1.72266 10.7255 2.73261 11.8 3.97846 11.8Z" stroke="#FE4600" stroke-width="1.5"/>
<path d="M22.0234 11.8C23.2692 11.8 24.2792 10.7255 24.2792 9.4C24.2792 8.07452 23.2692 7 22.0234 7C20.7775 7 19.7676 8.07452 19.7676 9.4C19.7676 10.7255 20.7775 11.8 22.0234 11.8Z" stroke="#FE4600" stroke-width="1.5"/>
<path d="M3.9768 15.4H3.63167C3.09768 15.4 2.58098 15.6014 2.17349 15.9686C1.76601 16.3358 1.49416 16.8448 1.40632 17.4052L1.03073 19.8052C0.976831 20.1491 0.993985 20.5013 1.081 20.8374C1.16802 21.1735 1.3228 21.4854 1.53459 21.7513C1.74639 22.0173 2.0101 22.231 2.30739 22.3776C2.60468 22.5242 2.92842 22.6001 3.25608 22.6H7.3605M22.0232 15.4H22.3683C22.9023 15.4 23.419 15.6014 23.8265 15.9686C24.234 16.3358 24.5058 16.8448 24.5937 17.4052L24.9693 19.8052C25.0232 20.1491 25.006 20.5013 24.919 20.8374C24.832 21.1735 24.6772 21.4854 24.4654 21.7513C24.2536 22.0173 23.9899 22.231 23.6926 22.3776C23.3953 22.5242 23.0716 22.6001 22.7439 22.6H18.6395" stroke="#FE4600" stroke-width="1.5" stroke-linecap="round" stroke-linejoin="round"/>
</svg>
