<svg width="21" height="22" viewBox="0 0 21 22" fill="none" xmlns="http://www.w3.org/2000/svg">
<path fill-rule="evenodd" clip-rule="evenodd" d="M2.62164 0.94751H18.2592C19.493 0.94751 20.4932 1.94768 20.4932 3.18145V18.819C20.4932 20.0528 19.493 21.053 18.2592 21.053H2.62164C1.38786 21.053 0.387695 20.0528 0.387695 18.819V3.18145C0.387695 1.94768 1.38786 0.94751 2.62164 0.94751ZM5.97255 17.7021C6.28098 17.7021 6.53103 17.452 6.53103 17.1436V9.32478C6.53103 9.01639 6.28098 8.7663 5.97255 8.7663H4.29709C3.98865 8.7663 3.73861 9.01639 3.73861 9.32478V17.1436C3.73861 17.452 3.98865 17.7021 4.29709 17.7021H5.97255ZM5.13482 7.64933C4.20949 7.64933 3.45936 6.89921 3.45936 5.97387C3.45936 5.04854 4.20949 4.29842 5.13482 4.29842C6.06015 4.29842 6.81027 5.04854 6.81027 5.97387C6.81027 6.89921 6.06015 7.64933 5.13482 7.64933ZM16.5838 17.7021C16.8922 17.7021 17.1422 17.452 17.1422 17.1436V12.0055C17.1785 10.2304 15.8662 8.7155 14.1041 8.49823C12.8721 8.38569 11.6784 8.9611 10.9989 9.99497V9.32478C10.9989 9.01639 10.7488 8.7663 10.4404 8.7663H8.76497C8.45657 8.7663 8.20648 9.01639 8.20648 9.32478V17.1436C8.20648 17.452 8.45657 17.7021 8.76497 17.7021H10.4404C10.7488 17.7021 10.9989 17.452 10.9989 17.1436V12.9549C10.9989 12.0296 11.7491 11.2795 12.6744 11.2795C13.5997 11.2795 14.3498 12.0296 14.3498 12.9549V17.1436C14.3498 17.452 14.5999 17.7021 14.9083 17.7021H16.5838Z" fill="#292929"/>
</svg>
