<svg width="12" height="22" viewBox="0 0 12 22" fill="none" xmlns="http://www.w3.org/2000/svg">
<path d="M11.4306 4.29842H8.07964C7.46274 4.29842 6.96267 4.79851 6.96267 5.41539V8.7663H11.4306C11.5575 8.76348 11.6781 8.82259 11.7536 8.9248C11.8291 9.027 11.8503 9.15947 11.8103 9.28011L10.9838 11.7374C10.9076 11.963 10.6968 12.1154 10.4588 12.1172H6.96267V20.4945C6.96267 20.8029 6.71258 21.053 6.40419 21.053H3.61176C3.30332 21.053 3.05328 20.8029 3.05328 20.4945V12.1172H1.37782C1.06938 12.1172 0.819336 11.8671 0.819336 11.5587V9.32478C0.819336 9.01639 1.06938 8.7663 1.37782 8.7663H3.05328V5.41539C3.05328 2.94785 5.05366 0.94751 7.52116 0.94751H11.4306C11.7389 0.94751 11.989 1.19755 11.989 1.50599V3.73993C11.989 4.04837 11.7389 4.29842 11.4306 4.29842Z" fill="#292929"/>
</svg>
