<svg width="21" height="18" viewBox="0 0 21 18" fill="none" xmlns="http://www.w3.org/2000/svg">
<path d="M20.7831 3.09982C20.2643 3.7918 19.6373 4.39543 18.9261 4.88737C18.9261 5.06813 18.9261 5.24889 18.9261 5.4397C18.9318 8.72231 17.6206 11.8699 15.2865 14.1769C12.9522 16.4839 9.79029 17.7573 6.50959 17.7115C4.6129 17.7178 2.7405 17.2848 1.03908 16.4462C0.947332 16.4061 0.888166 16.3154 0.888513 16.2152V16.1047C0.888513 15.9605 1.00536 15.8437 1.14949 15.8437C3.01388 15.7821 4.81176 15.1357 6.28875 13.9959C4.60122 13.9618 3.08288 12.9621 2.38411 11.4249C2.34883 11.341 2.35981 11.2446 2.41312 11.1708C2.46642 11.097 2.55434 11.0563 2.64509 11.0635C3.15797 11.115 3.67598 11.0673 4.17082 10.9229C2.30792 10.5362 0.90816 8.9896 0.707832 7.09667C0.700717 7.00586 0.741408 6.91796 0.815217 6.86456C0.889015 6.81129 0.985265 6.80023 1.06919 6.83564C1.5691 7.05624 2.10877 7.1724 2.65513 7.17698C1.02279 6.10565 0.31773 4.06784 0.938698 2.21609C1.0028 2.03616 1.1568 1.90323 1.3441 1.86617C1.5314 1.8291 1.72439 1.89336 1.85212 2.03533C4.05487 4.3797 7.08146 5.7767 10.2937 5.93177C10.2115 5.60345 10.1711 5.26602 10.1733 4.92754C10.2033 3.15267 11.3016 1.57159 12.9538 0.924486C14.6059 0.277391 16.4851 0.692335 17.7116 1.97507C18.5476 1.81581 19.3558 1.535 20.1105 1.14156C20.1658 1.10704 20.236 1.10704 20.2913 1.14156C20.3258 1.19687 20.3258 1.267 20.2913 1.32232C19.9257 2.15946 19.3081 2.86159 18.5247 3.3308C19.2107 3.25123 19.8847 3.0894 20.5322 2.84877C20.5867 2.81166 20.6583 2.81166 20.7128 2.84877C20.7585 2.86966 20.7927 2.90961 20.8062 2.95798C20.8197 3.00636 20.8112 3.05824 20.7831 3.09982Z" fill="#292929"/>
</svg>
