<svg width="21" height="22" viewBox="0 0 21 22" fill="none" xmlns="http://www.w3.org/2000/svg">
<path fill-rule="evenodd" clip-rule="evenodd" d="M14.5504 0.94751H5.61463C2.53021 0.94751 0.0297852 3.44794 0.0297852 6.53236V15.4681C0.0297852 18.5525 2.53021 21.053 5.61463 21.053H14.5504C17.6348 21.053 20.1352 18.5525 20.1352 15.4681V6.53236C20.1352 3.44794 17.6348 0.94751 14.5504 0.94751ZM18.1805 15.4681C18.1744 17.4704 16.5527 19.0921 14.5504 19.0983H5.61463C3.6123 19.0921 1.99061 17.4704 1.98448 15.4681V6.53236C1.99061 4.53002 3.6123 2.90834 5.61463 2.90221H14.5504C16.5527 2.90834 18.1744 4.53002 18.1805 6.53236V15.4681ZM15.3881 6.8116C16.005 6.8116 16.5051 6.31151 16.5051 5.69463C16.5051 5.07775 16.005 4.57766 15.3881 4.57766C14.7712 4.57766 14.2712 5.07775 14.2712 5.69463C14.2712 6.31151 14.7712 6.8116 15.3881 6.8116ZM10.0825 5.97387C7.30653 5.97387 5.05615 8.22426 5.05615 11.0002C5.05615 13.7762 7.30653 16.0266 10.0825 16.0266C12.8585 16.0266 15.1089 13.7762 15.1089 11.0002C15.1119 9.66624 14.5832 8.38605 13.64 7.44278C12.6967 6.49951 11.4165 5.9709 10.0825 5.97387ZM7.01085 11.0002C7.01085 12.6967 8.38606 14.0719 10.0825 14.0719C11.779 14.0719 13.1542 12.6967 13.1542 11.0002C13.1542 9.30379 11.779 7.92857 10.0825 7.92857C8.38606 7.92857 7.01085 9.30379 7.01085 11.0002Z" fill="#292929"/>
</svg>
