<svg width="31" height="25" viewBox="0 0 31 25" fill="none" xmlns="http://www.w3.org/2000/svg">
<path d="M30.4786 21.7715C29.8829 21.2028 22.6649 18.4951 21.3551 17.9844C20.0522 17.4825 19.5325 16.0919 19.5325 16.0919C19.5325 16.0919 18.946 16.4064 18.946 15.5231C18.946 14.6388 19.5325 16.0919 20.1189 12.6816C20.1189 12.6816 21.7461 12.2389 21.423 8.57775H21.032C21.032 8.57775 22.0094 4.66344 21.032 3.33859C20.0511 2.01375 19.667 1.13052 17.5132 0.497096C15.3629 -0.135215 16.1448 -0.00919874 14.5832 0.0554821C13.0193 0.119048 11.7176 0.939826 11.7176 1.38032C11.7176 1.38032 10.7402 1.44389 10.3515 1.82305C9.96052 2.20222 9.30966 3.96868 9.30966 4.41029C9.30966 4.8519 9.63509 7.82276 9.96052 8.45173L9.573 8.5744C9.24757 12.2367 10.8747 12.6805 10.8747 12.6805C11.4612 16.0908 12.0476 14.6377 12.0476 15.522C12.0476 16.4052 11.4612 16.0908 11.4612 16.0908C11.4612 16.0908 10.9403 17.4803 9.63854 17.9832C8.33683 18.4884 1.11071 21.2028 0.523103 21.7704C-0.0633578 22.3503 0.00218767 25 0.00218767 25H13.8427L14.8523 21.1414L13.9554 20.2716L15.4997 18.7717L17.044 20.2705L16.1471 21.1403L17.1567 24.9989H30.9972C30.9972 24.9989 31.0697 22.347 30.4763 21.7682L30.4786 21.7715Z" fill="#FE4600"/>
</svg>
